<svg width="1000" height="440" viewBox="0 0 1000 440" fill="none" xmlns="http://www.w3.org/2000/svg">
<rect width="1000" height="440" fill="#F7DF1E"/>
<path d="M385.333 298V165.641H392.5V186.461C393.347 185.538 394.129 184.557 394.84 183.526C400.827 171.086 413.453 163.234 427.239 163.389C443.581 162.901 456.862 168.961 464.666 183.526C469.632 192.575 472.365 202.682 472.637 213.005C472.908 223.327 470.71 233.564 466.226 242.862C458.955 259.185 440.995 267.301 421.768 264.32C415.784 263.811 410.024 261.808 405.011 258.495C399.999 255.182 395.895 250.665 393.074 245.355V297.994L385.333 298ZM392.5 212.462L394.106 228.004C396.939 245.694 407.381 256.147 423.775 258.111C431.474 259.379 439.374 257.933 446.127 254.021C452.881 250.108 458.071 243.97 460.813 236.654C467.189 221.433 466.719 204.203 459.551 189.339C456.625 182.78 451.647 177.353 445.37 173.879C439.093 170.405 431.857 169.071 424.756 170.081C418.09 170.566 411.742 173.119 406.591 177.384C401.441 181.65 397.744 187.416 396.016 193.882C394.489 200.001 393.315 206.202 392.5 212.456V212.462ZM618.992 230.451C617.905 239.77 613.476 248.377 606.528 254.67C599.58 260.963 590.587 264.515 581.221 264.665C551.162 266.181 537.055 246.188 534.813 223.116C533.254 210.587 535.285 197.872 540.668 186.455C544.415 178.623 550.554 172.19 558.195 168.086C565.837 163.982 574.584 162.422 583.17 163.631C591.333 164.326 599.071 167.574 605.288 172.916C611.506 178.259 615.889 185.424 617.817 193.399C619.344 200.664 620.468 208.008 621.183 215.397H542.239C540.777 236.315 551.999 253.132 567.906 257.187C587.718 262.069 604.651 253.471 610.798 234.603C612.163 229.761 614.651 229.078 619.044 230.451H618.992ZM542.182 208.7H612.794C612.352 186.415 598.498 170.218 579.707 170.035C558.49 169.69 543.105 185.238 542.182 208.7V208.7ZM633.586 230.939H640.507C640.762 236.046 642.417 240.984 645.293 245.21C648.168 249.435 652.151 252.785 656.804 254.889C662.646 257.523 669.007 258.803 675.411 258.634C681.816 258.465 688.1 256.851 693.796 253.913C696.901 252.513 699.502 250.191 701.247 247.263C702.992 244.335 703.798 240.94 703.555 237.538C703.734 234.257 702.84 231.007 701.008 228.282C699.177 225.556 696.508 223.502 693.406 222.433C685.791 219.595 677.694 218.033 669.936 215.54C661.862 213.238 653.968 210.347 646.316 206.891C633.815 200.78 633.041 176.979 647.193 169.443C654.44 165.347 662.595 163.134 670.914 163.006C679.234 162.878 687.453 164.838 694.822 168.708C703.963 173.762 709.014 183.968 707.512 194.324H701.577C701.577 194.037 701.038 193.784 701.038 193.491C700.304 174.538 684.397 168.61 667.321 170.276C662.16 170.85 657.269 172.412 652.681 174.721C649.923 175.983 647.625 178.071 646.105 180.698C644.585 183.325 643.917 186.361 644.194 189.385C644.2 192.411 645.142 195.36 646.889 197.829C648.637 200.297 651.105 202.163 653.954 203.169C661.409 205.909 669.322 207.666 677.035 209.814L695.671 214.696C699.907 216.089 703.621 218.736 706.322 222.289C709.023 225.841 710.584 230.131 710.798 234.592C712.289 244.614 707.185 254.464 698.16 259.03C681.863 268.266 655.021 265.825 643.065 254.148C636.946 247.986 633.534 239.617 633.603 230.933L633.586 230.939ZM798.618 194.33H792.127C792.127 193.451 791.783 192.607 791.685 191.935C791.582 187.061 789.808 182.371 786.663 178.652C783.517 174.932 779.19 172.409 774.408 171.505C765.387 168.913 755.763 169.378 747.033 172.826C743.58 173.816 740.541 175.898 738.368 178.761C736.195 181.625 735.007 185.116 734.979 188.713C734.856 192.244 735.953 195.71 738.087 198.524C740.221 201.338 743.259 203.328 746.689 204.157L776.358 211.784C779.566 212.555 782.726 213.518 785.819 214.667C795.281 218.114 801.703 226.913 801.99 236.969C802.132 241.892 800.784 246.743 798.123 250.884C795.462 255.025 791.613 258.263 787.081 260.173C780.195 263.306 772.731 264.964 765.168 265.04C757.605 265.116 750.11 263.609 743.162 260.616C737.448 258.148 732.627 253.986 729.346 248.69C726.065 243.395 724.483 237.22 724.812 230.996H731.154C733.54 242.512 741.436 252.104 752.268 256.641C763.1 261.178 775.469 260.064 785.32 253.677C788.276 252.138 790.73 249.782 792.39 246.889C794.051 243.996 794.849 240.687 794.69 237.354C794.837 234.071 793.911 230.83 792.053 228.121C790.194 225.413 787.504 223.385 784.391 222.347C776.776 219.509 768.679 217.999 760.921 215.454C752.803 213.188 744.86 210.329 737.158 206.902C724.956 200.889 723.981 177.283 737.892 169.753C745.228 165.486 753.542 163.193 762.026 163.098C770.509 163.004 778.872 165.11 786.301 169.213C790.55 171.753 793.97 175.476 796.145 179.928C798.32 184.381 799.155 189.37 798.549 194.289L798.618 194.33ZM373.537 262.275C370.982 263.243 368.162 263.241 365.608 262.268C363.055 261.296 360.945 259.421 359.678 256.997L334.447 222.048L330.788 217.166L301.509 257.049C300.316 259.368 298.32 261.173 295.895 262.127C293.47 263.08 290.782 263.117 288.332 262.229L326.052 211.543L290.958 165.744C296.165 163.86 301.968 165.905 304.864 170.626L331.012 206.006L357.315 170.764C358.517 168.484 360.514 166.727 362.926 165.826C365.337 164.924 367.996 164.942 370.395 165.876L356.776 183.974L338.329 208.022C337.817 208.48 337.407 209.041 337.127 209.669C336.846 210.296 336.701 210.976 336.701 211.664C336.701 212.351 336.846 213.031 337.127 213.658C337.407 214.286 337.817 214.847 338.329 215.305L373.463 262.275H373.537ZM533.695 165.256V172.148C528.76 171.824 523.811 172.54 519.169 174.25C514.526 175.96 510.294 178.625 506.743 182.075C503.193 185.525 500.405 189.682 498.558 194.278C496.711 198.874 495.847 203.806 496.021 208.757C496.021 224.855 496.021 240.952 496.021 257.049V262.522H489.042V165.687H495.924V185.531C504.364 171.057 517.393 165.687 533.741 165.296L533.695 165.256ZM198.011 210.911L201.085 195.708C209.526 165.647 243.931 153.137 267.602 171.758C281.462 182.659 284.92 198.103 284.243 215.506H206.16C204.898 246.59 227.291 265.36 255.933 255.779C265.372 252.333 272.477 244.476 274.816 234.712C276.33 229.83 278.83 228.992 283.406 230.405C282.643 236.356 280.543 242.056 277.263 247.077C273.983 252.098 269.61 256.308 264.472 259.392C255.982 264.042 246.242 265.885 236.645 264.656C227.047 263.428 218.083 259.191 211.034 252.552C204.061 244.7 199.852 234.775 199.032 224.294C199.032 222.571 198.459 220.962 198.057 219.412C198.019 216.513 198 213.68 198 210.911H198.011ZM206.257 208.809H276.869C276.427 186.277 262.229 170.293 243.295 170.144C222.216 169.857 207.135 185.49 206.206 208.711L206.257 208.809Z" fill="white"/>
</svg>
