<svg width="1000" height="440" viewBox="0 0 1000 440" fill="none" xmlns="http://www.w3.org/2000/svg">
<rect width="1000" height="440" fill="#002C4C"/>
<path d="M430.499 339.478C417.432 329.2 403.494 319.346 393.969 305.47C373.927 281 358.496 252.669 347.947 222.897C341.571 203.537 339.387 182.782 331.167 164.17C322.568 150.653 332.64 135.876 347.446 131.579C354.038 130.314 365.629 124.096 351.638 128.54C339.094 137.744 337.88 120.186 350.743 119.074C359.521 117.908 362.752 110.721 359.75 104.252C350.328 98.1071 382.598 91.3537 366.361 82.1845C349.446 63.934 390.022 60.4207 380.011 81.1477C377.615 97.0859 408.363 78.2266 401.229 96.6317C408.48 105.471 428.383 98.6435 427.89 111.043C438.453 111.77 442.078 120.658 451.994 121.34C462.272 125.982 480.902 129.639 484.399 141.221C474.203 149.294 450.593 124.546 449.459 146.892C452.539 179.903 451.754 213.908 463.831 245.343C469.543 264.378 483.391 279.362 495.897 294.187C507.863 308.706 524.071 318.927 540.592 327.533C555.083 334.368 570.707 338.901 586.501 341.746C592.907 336.846 604.216 318.629 614.209 326.31C614.683 334.942 594.375 344.354 613.254 343.4C624.34 340.055 632.028 351.974 641.157 341.223C649.568 351.186 676.114 334.858 670.13 355.222C662.038 360.443 650.237 357.288 642.131 364.47C628.768 357.795 618.129 370.443 603.335 368.843C586.905 371.786 570.191 372.974 553.534 373C526.207 370.841 498.302 369.931 472.306 360.416C457.661 356.16 443.37 347.821 430.499 339.478V339.478ZM453.577 349.478C467.877 355.663 481.86 362.181 497.532 364.147C522.396 367.605 548.072 372.924 573.024 368.072C561.731 362.973 550.056 370.059 538.805 364.426C525.311 367.329 510.831 363.686 497.113 361.892C481.513 354.943 464.678 350.165 450.07 341.145C431.816 334.477 459.51 349.695 464.44 350.928C475.851 357.405 451.892 347.608 448.514 344.915C438.956 339.553 437.738 340.674 447.567 346.119C449.547 347.277 451.503 348.491 453.577 349.478V349.478ZM426.367 330.247C440.224 335.38 426.306 320.502 419.956 321.367C417.143 316.486 409.208 313.402 414.805 310.78C404.736 314.276 404.258 297.487 399.525 299.885C388.873 296.522 395.379 284.606 382.691 277.288C381.532 269.578 370.084 262.89 366.433 251.26C364.82 245.305 353.499 228.205 360.453 244.119C366.375 259.439 376.793 272.559 385.464 285.663C392.196 298.141 400.146 311.181 412.407 318.964C416.54 322.929 420.53 329.005 426.367 330.247ZM386.448 286.416C386.931 284.324 388.982 290.946 386.448 286.416V286.416ZM442.962 336.401C446.031 335.027 438.55 334.669 442.962 336.401V336.401ZM450.485 339.145C449.705 335.356 447.051 341.263 450.485 339.145V339.145ZM459.9 343.073C464.383 338.804 452.992 340.381 459.9 343.073V343.073ZM476.038 352.068C478.762 348.041 467.32 350.548 476.038 352.068V352.068ZM445.049 330.464C452.011 325.959 436.056 330.402 445.049 330.464V330.464ZM452.112 333.986C451.915 331.605 449.595 335.053 452.112 333.986V333.986ZM487.415 356.022C493.09 359.604 520.556 363.872 503.357 357.491C500.48 358.097 471.468 349.284 487.415 356.022ZM431.371 312.37C430.819 309.982 422.562 309.734 431.371 312.37V312.37ZM447.806 321.949C452.083 318.966 438.928 319.648 447.806 321.949V321.949ZM461.63 330.426C467.767 328.112 451.673 328.101 461.63 330.426V330.426ZM424.683 305.087C431.343 310.194 451.54 305.741 434.882 302.038C427.3 297.996 410.212 295.229 421.86 304.475L424.683 305.087L424.683 305.087ZM470.992 333.353C473.766 328.626 459.36 330.654 470.992 333.353V333.353ZM456.921 322.168C473.204 326.775 443.227 311.87 452.903 320.473L455.047 321.444L456.921 322.168L456.921 322.168ZM485.134 338.476C500.555 338.623 471.204 336.349 485.134 338.476V338.476ZM418.75 296.164C418.147 293.291 414.944 296.404 418.75 296.164V296.164ZM511.221 353.11C511.632 347.921 506.188 356.971 511.221 353.11V353.11ZM445.067 312.281C444.135 309.549 440.249 312.17 445.067 312.281V312.281ZM420.212 294.361C429.066 293.829 408.091 290.46 420.212 294.361V294.361ZM390.768 275.328C389.666 271.083 381.134 267.698 390.768 275.328V275.328ZM468.066 324.386C466.444 322.537 467.303 324.791 468.066 324.386V324.386ZM516.179 353.913C516.025 351.087 513.559 354.983 516.179 353.913V353.913ZM463.808 319.989C464.674 316.347 456.259 318.886 463.808 319.989V319.989ZM427.965 297.271C434.551 296.566 417.413 292.818 427.965 297.271V297.271ZM488.597 334.949C498.861 330.883 478.593 332.964 488.597 334.949V334.949ZM457.059 313.539C468.888 315.064 442.983 305.493 454.463 312.683L457.059 313.539L457.059 313.539V313.539ZM498.172 338.82C509.216 332.217 505.575 354.282 516.909 340.684C528.089 332.521 507.254 350.777 521.033 342.14C530.998 335.475 545.716 345.299 555.015 348.505C561.701 348.176 568.202 354.287 575.057 350.57C588.253 347.015 549.253 345.298 559.476 338.991C547.402 342.506 538.481 334.802 532.539 327.067C518.996 323.94 503.336 317.015 496.577 305.028C493.821 300.528 500.558 305.662 494.198 298.306C486.036 291.047 481.961 282.806 476.483 273.982C469.938 270.49 469.175 260.213 468.514 273.637C468.566 265.165 460.612 259.462 458.67 261.833C458.636 253.673 467.183 257.763 461.199 251.726C459.912 243.269 455.671 234.456 454.397 224.908C452.417 220.305 454.118 210.447 447.638 220.867C445.278 231.878 446.855 207.334 450.526 215.428C455.344 207.169 448.796 208.141 448.528 209.287C451.667 202.319 450.514 192.435 447.709 196.206C449.381 188.82 450.351 169.024 445.205 172.532C448.325 164.809 451.121 137.193 437.58 147.722C432.093 147.799 422.59 149.714 418.098 151.948C432.182 159.713 416.681 154.752 410.948 153.518C410.201 160.703 404.522 157.595 397.427 157.666C408.759 159.068 391.909 169.256 385.409 165.298C376.966 169.334 392.695 179.406 385.578 182.521C386.453 187.216 372.644 180.825 373.729 191.668C365.533 188.22 372.6 204.53 376.7 199.014C390.64 202.787 386.514 211.389 386.869 219.56C384.597 224.322 375.655 208.369 384.877 209.107C377.602 197.288 376.829 204.835 370.784 210.326C369.377 210.725 386.205 218.138 375.645 221.804C384.935 223.238 385.2 231.369 387.091 236.514C392.675 242.331 391.532 230.091 398.214 237.081C393.986 230.854 375.818 219.535 390.445 223.165C390.367 216.897 387.8 211.843 392.281 211.966C396.719 203.928 387.633 231.783 397.637 221.568C400.406 220.359 401.092 213.52 406.069 222.214C413.299 229.326 408.681 234.48 398.483 227.968C400.307 234.157 412.125 236.369 409.904 246.049C412.259 254.563 415.552 251.427 418.424 250.935C420.676 259.207 421.955 253.124 422.062 249.188C432.374 251.396 429.959 257.492 433.186 261.751C440.292 264.959 423.014 240.008 435.214 254.249C448.05 265.838 440.028 270.676 428.509 268.819C435.8 268.23 438.151 278.676 447.27 278.309C455.586 282.265 461.216 297.461 446.882 291.135C441.911 286.652 424.317 281.122 438.687 289.649C451.959 295.795 462.5 299.472 475.3 307.188C484.46 313.728 488.418 321.218 491.89 322.701C484.191 326.379 468.688 319.764 480.2 317.737C473.02 316.429 464.944 312.798 471.821 321.745C477.669 326.628 492.54 326.111 495.206 326.664C492.947 331.643 489.068 332.039 495.299 332.425C488.348 336.13 497.528 336.703 498.172 338.82H498.172ZM483.958 298.679C479.729 294.256 478.636 285.972 483.207 293.18C485.551 294.122 490.717 306.718 483.958 298.679H483.958ZM530.247 328.084C532.884 327.913 530.323 330.088 530.247 328.084V328.084ZM477.281 287.834C477.119 281.148 478.811 292.992 477.281 287.834V287.834ZM472.68 281.644C467.361 271.366 479.386 284.555 472.68 281.644V281.644ZM416.93 243.163C420.055 242.329 418.467 248.508 416.93 243.163V243.163ZM461.3 267.215C463.219 260.007 463.555 273.262 461.3 267.215V267.215ZM429.954 245.417C427.744 241.44 434.576 249.147 429.954 245.417V245.417ZM456.856 254.041C451.816 242.75 460.423 247.874 457.97 255.892L456.856 254.041ZM410.463 223.1C408.21 219.396 404.483 208.527 405.683 205.209C406.769 210.613 417.174 228.464 410.787 212.604C403.729 199.309 419.224 216.919 420.818 220.235C421.56 223.534 416.463 219.334 419.916 227.069C413.619 218.263 416.199 231.934 410.463 223.1V223.1ZM396.125 213.22C396.716 204.607 399.408 219.126 396.125 213.22V213.22ZM402.575 215.44C405.652 208.939 407.793 224.503 402.575 215.44V215.44ZM387.061 203.438C381.723 198.133 377.86 193.243 387.31 200.146C390.952 200.288 379.22 189.026 388.187 196.57C397.617 198.289 392.844 212.032 387.061 203.438ZM395.21 203.225C398.31 200.153 396.856 206.249 395.21 203.225V203.225ZM400.224 204.833C395.525 196.023 405.928 208.526 400.224 204.833V204.833ZM390.256 195.306C374.738 181.495 409.755 202.528 392.791 197.866L390.256 195.306L390.256 195.306V195.306ZM434.718 221.141C428.002 217.114 432.938 192.793 435.228 209.427C441.756 207.315 434.868 218.017 439.737 217.918C438.969 224.671 436.791 227.098 434.718 221.141ZM451.163 230.861C451.821 223.531 452.549 235.872 451.163 230.861V230.861ZM448.306 228.038C449.046 224.907 448.383 231.726 448.306 228.038V228.038ZM393.3 190.768C383.331 177.012 422.274 204.682 399.685 194.257C397.325 193.639 394.485 193.419 393.3 190.768ZM424.968 207.559C424.025 195.977 427.075 209.479 424.968 207.559L424.968 207.559ZM449.012 222.984C450.872 216.386 449.15 227.348 449.012 222.984V222.984ZM394.827 185.518C400.752 184.251 419.382 195.925 402.274 188.853C400.373 186.748 396.321 187.704 394.827 185.518ZM445.708 210.879C446.342 199.036 449.246 203.805 445.73 212.574L445.709 210.879L445.708 210.879H445.708ZM399.238 181.397C401.652 177.855 392.829 165.385 400.51 176.924C403.828 179.561 410.119 181.342 404.565 182.451C413.299 190.156 402.435 184.539 399.238 181.397V181.397ZM443.192 207.179C444.86 193.688 444.663 215.084 443.192 207.179V207.179ZM394.196 168.936C396.04 168.148 395.17 171.393 394.196 168.936V168.936ZM405.661 175.76C408.612 169.569 411.104 182.666 405.661 175.76V175.76ZM438.001 193.752C437.97 191.374 438.611 197.211 438.001 193.752V193.752ZM436.128 189.604C431.639 178.53 440.303 195.468 436.128 189.604V189.604ZM433.371 182.343C432.618 177.767 435.932 188.092 433.371 182.343L433.371 182.343ZM437.857 175.052C434.777 169.623 441.747 151.13 442.524 162.599C439.273 171.536 441.586 176.535 443.854 164.549C448.043 155.115 442.95 183.164 437.857 175.052L437.857 175.052V175.052ZM442.466 147.549C443.809 145.9 442.764 149.536 442.466 147.549V147.549ZM434.769 299.239C432.943 297.646 434.998 300.253 434.769 299.239V299.239ZM450.626 307.262C459.447 309.525 459.402 305.889 451.43 304.809C447.142 300.82 433.611 296.588 445.722 304.314C446.524 306.346 449.058 306.298 450.626 307.262V307.262ZM419.308 286.459C424.167 290.083 437.612 296.73 426.231 287.838C430.068 283.38 418.886 281.007 422.595 278.024C413.16 272.25 415.153 272.764 421.763 272.946C410.424 267.877 423.399 268.256 422.788 265.659C418.416 264.796 401.072 257.949 411.275 266.222C400.902 260.932 408.803 268.192 405.668 267.424C395.061 264.532 415.114 275.503 403.984 272.78C410.069 277.602 420.363 285.132 406.556 277.883C404.737 280.502 416.436 284.471 419.308 286.459ZM435.893 295.988C456.059 302.486 426.006 288.048 435.893 295.988V295.988ZM520.794 347.424C521.054 343.423 518.038 350.837 520.794 347.424V347.424ZM529.52 351.096C534.173 346.588 529.71 358.278 537.229 349.993C537.311 344.061 536.998 340.558 528.589 347.763C526.27 349.049 525.236 354.515 529.52 351.096V351.096ZM391.001 264.099C389.572 258.482 380.986 258.511 391.001 264.099V264.099ZM400.319 270.205C396.859 264.468 387.973 265.011 400.319 270.205V270.205ZM453.329 302.176C458.505 306.774 477.1 305.55 459.616 302.742C457.026 298.913 443.172 299.835 453.329 302.176ZM526.201 347.183C534.167 340.499 518.483 350.165 526.201 347.183V347.183ZM542.768 358.568C542.817 356.423 539.334 359.508 542.768 358.568V358.568ZM542.793 355.565C551.614 346.219 534.246 356.118 542.793 355.565H542.793ZM368.083 244.911C360.565 234.184 363.41 229.362 356.16 220.602C354.787 213.904 343.722 198.705 350.437 214.807C356.587 224.225 358.414 238.807 368.083 244.911V244.911ZM540.026 352.594C556.255 342.104 533.365 348.025 540.026 352.594V352.594ZM552.414 357.447C560.541 350.469 547.274 355.988 552.414 357.447V357.447ZM388.239 252.241C390.565 248.781 382.233 251.799 388.239 252.241V252.241ZM549.828 354.134C557.696 349.06 548.015 349.839 548.402 354.6L549.828 354.134H549.828ZM443.041 286.822C442.77 283.396 438.886 287.112 443.041 286.822V286.822ZM449.64 290.619C447.543 286.379 446.416 291.285 449.64 290.619V290.619ZM562.454 357.562C572.534 350.29 556.343 356.17 560.338 358.94L562.454 357.562ZM558.593 355.697C566.805 348.815 549.924 358.746 558.593 355.697V355.697ZM578.316 368.832C583.829 365.138 571.617 367.637 578.316 368.832V368.832ZM393.296 249.746C400.687 251.402 422.831 267.948 409.767 250.89C403.076 248.91 407.089 232.553 400.264 235.448C404.845 243.101 404.033 246.358 394.415 241.534C382.327 235.632 387.622 244.458 389.984 246.89C386.765 247.622 394.243 249.684 393.296 249.746V249.746ZM359.624 223.152C360.947 217.679 347.441 193.044 353.246 210.808C355.342 214.529 355.129 221.582 359.624 223.152ZM421.427 261.257C417.621 258.074 421.246 260.807 421.427 261.257V261.257ZM430.798 263.438C430.793 257.641 420.439 261.084 430.798 263.438V263.438ZM512.012 314.639C510.463 310.678 505.889 314.547 512.012 314.639L512.012 314.639ZM515.912 317.488C515.336 315.271 513.662 317.916 515.912 317.488V317.488ZM548.102 337.765C551.198 335.478 544.239 337.473 548.102 337.765V337.765ZM376.443 227.446C385.299 224.018 366.956 225.001 376.443 227.446V227.446ZM504.862 308.356C504.764 302.623 499.217 309.778 504.862 308.356V308.356ZM372.945 219.293C378.633 217.371 367.683 218.027 372.945 219.293V219.293ZM389.455 227.291C389.352 225.407 387.709 228.004 389.455 227.291V227.291ZM590.834 350.787C598.148 349.303 614.817 354.51 617.511 348.847C608.628 348.631 586.779 342.58 585.745 350.291L587.69 350.598L590.834 350.787V350.787ZM394.703 228.613C394.83 222.804 390.173 228.396 394.703 228.613V228.613ZM351.292 198.499C349.321 187.43 343.794 196.824 351.292 198.499V198.499ZM361.644 201.101C361.771 197.547 352.169 197.903 361.644 201.101V201.101ZM367.56 204.007C365.85 202.621 366.221 205.756 367.56 204.007V204.007ZM404.782 227.886C406.535 226.276 400.634 226.694 404.782 227.886V227.886ZM363.62 197.453C362.619 189.093 351.63 196.201 363.62 197.453V197.453ZM342.397 183.682C342.095 179.824 340.329 185.138 342.397 183.682V183.682ZM345.554 181.298C345.039 176.723 342.843 181.88 345.554 181.298V181.298ZM362.996 191.71C370.371 188.813 349.561 185.717 361.489 191.163L362.996 191.71ZM596.432 335.908C601.153 331.58 590.433 334.57 596.432 335.908V335.908ZM624.633 350.528C626.525 344.931 619.87 351.264 624.633 350.528V350.528ZM364.779 182.567C365.555 177.154 358.931 183.642 364.779 182.567V182.567ZM339.963 165.94C338.629 158.297 338.812 144.882 351.563 149.416C334.542 152.795 363.343 170.572 359.706 156.537C366.863 156.887 373.707 152.307 369.951 159.258C384.052 157.7 393.828 145.472 407.449 147.185C418.059 145.781 429.659 144.716 441.093 140.445C450.493 139.768 459.543 129.646 454.39 123.647C441.57 122.562 428.151 124.166 413.982 126.983C398.28 130.247 384.018 136.449 368.176 139.111C352.734 141.186 371.282 144.827 366.859 145.638C358.801 148.434 376.468 150.319 365.814 153.267C359.235 152.016 352.386 149.755 355.196 142.82C340.405 144.74 327.407 150.879 339.093 165.933L339.962 165.94L339.963 165.939V165.94ZM375.605 147.786C379.074 135.009 394.186 158.3 381.29 149.483C379.75 148.33 377.216 147.39 375.605 147.786ZM376.28 141.591C381.286 137.862 378.941 143.682 376.28 141.591V141.591ZM382.636 141.692C383.088 135.813 397.186 144.805 384.961 143.809L382.636 141.692ZM391.33 138.196C394.505 134.486 392.243 141.496 391.33 138.196V138.196ZM393.554 136.707C398.841 130.354 423.494 132.653 405.449 136.087C400.612 132.446 396.905 138.235 393.554 136.707ZM425.727 131.747C424.922 114.395 441.71 137.914 425.727 131.747V131.747ZM434.855 131.697C438.193 122.951 447.807 128.188 436.4 129.94C436.647 130.871 436.065 134.455 434.855 131.697ZM361.179 178.078C371.151 171.971 350.592 172.78 361.179 178.078V178.078ZM368.552 180.127C372.048 176.409 360.955 178.619 368.552 180.127V180.127ZM346.827 164.708C352.525 160.331 340.084 163.044 346.827 164.708V164.708ZM641.279 348.928C641.444 343.85 636.924 351.217 641.279 348.928V348.928ZM611.359 328.509C612.21 322.662 607.514 329.018 611.359 328.509V328.509ZM649.506 350.897C657.473 350.924 673.645 348.423 656.311 348.431C653.591 348.855 640.461 348.764 649.506 350.897L649.506 350.897V350.897ZM375.038 176.543C381.485 176.101 385.125 169.431 373.791 169.814C356.224 167.996 389.289 175.83 371.537 173.59C369.152 175.169 374.899 176.981 375.038 176.543ZM380.716 179.418C380.043 175.278 378.722 181.617 380.716 179.418V179.418ZM387.452 161.456C390.25 157.985 383.58 160.528 387.452 161.456V161.456ZM366.009 125.612C377.516 121.697 393.251 117.298 398.685 127.539C393.155 120.884 396.453 114.332 401.676 124.063C409.06 133.908 412.757 119.585 407.954 116.282C413.428 123.084 419.653 126.297 411.619 116.712C420.349 106.209 394.137 118.087 388.179 117.968C385.313 119.255 358.585 124.785 366.009 125.612V125.612ZM372.753 112.696C379.315 107.742 395.449 115.642 385.096 107.773C384.084 106.879 362.423 113.74 372.753 112.696V112.696ZM396.677 113.683C404.358 113.879 393.365 103.365 402.517 108.129C401.014 103.219 391.861 102.299 387.387 100.337C384.856 104.827 392.538 113.744 396.677 113.683ZM376.948 91.9646C379.605 88.3624 372.291 93.7908 376.948 91.9646V91.9646ZM386.726 94.3051C399.103 92.6634 383.571 88.9747 384.232 94.1732L386.726 94.3051V94.3051V94.3051ZM368.468 80.0178C359.754 68.6408 384.858 81.9302 376.003 70.0181C368.551 64.0835 361.39 76.6965 368.468 80.0178ZM480.308 140.262C484.305 133.176 463.806 130.71 477.615 137.75C478.887 138.175 478.599 140.752 480.308 140.262Z" fill="white"/>
</svg>
