<svg width="1000" height="440" viewBox="0 0 1000 440" fill="none" xmlns="http://www.w3.org/2000/svg">
<rect x="0.5" y="0.5" width="999" height="439" fill="#002C4C"/>
<path d="M365.039 228.386C365.039 239.135 364.179 242.636 361.968 245.216C359.507 247.432 356.312 248.658 353 248.656L353.86 254.798C358.994 254.868 363.976 253.054 367.864 249.7C369.956 247.149 371.513 244.203 372.442 241.037C373.37 237.871 373.652 234.55 373.269 231.273V190.61H365.039V228.14V228.386Z" fill="white"/>
<path d="M426.421 223.541C426.421 228.148 426.421 232.263 426.79 235.826H419.48L418.989 228.516C417.46 231.103 415.274 233.238 412.652 234.705C410.031 236.173 407.067 236.92 404.063 236.87C396.938 236.87 388.462 233 388.462 217.214V190.986H396.693V215.556C396.693 224.094 399.334 229.806 406.766 229.806C408.295 229.823 409.812 229.534 411.228 228.956C412.644 228.379 413.93 227.524 415.011 226.443C416.093 225.361 416.947 224.075 417.525 222.659C418.102 221.243 418.391 219.726 418.375 218.197V190.679H426.605V223.295L426.421 223.541Z" fill="white"/>
<path d="M442.022 205.599C442.022 199.887 442.022 195.218 441.654 190.98H449.024L449.393 198.658C451.035 195.884 453.399 193.608 456.233 192.072C459.067 190.536 462.265 189.797 465.485 189.936C476.419 189.936 484.649 199.088 484.649 212.724C484.649 228.817 474.76 236.803 464.073 236.803C461.337 236.925 458.617 236.339 456.174 235.101C453.731 233.864 451.65 232.017 450.13 229.739V254.309H442.022V205.783V205.599ZM450.13 217.577C450.152 218.691 450.275 219.801 450.498 220.894C451.195 223.621 452.782 226.038 455.007 227.763C457.232 229.487 459.968 230.42 462.783 230.414C471.443 230.414 476.541 223.351 476.541 213.093C476.541 204.125 471.751 196.447 463.09 196.447C459.663 196.727 456.455 198.249 454.069 200.725C451.684 203.202 450.283 206.463 450.13 209.899V217.577Z" fill="white"/>
<path d="M499.314 190.938L509.203 217.412C510.247 220.361 511.353 223.923 512.09 226.565C512.95 223.862 513.871 220.422 514.977 217.228L523.944 190.938H532.605L520.32 222.879C514.178 238.235 510.431 246.159 504.78 250.95C501.934 253.55 498.464 255.369 494.707 256.232L492.68 249.353C495.307 248.49 497.746 247.135 499.867 245.36C502.863 242.918 505.241 239.804 506.807 236.27C507.143 235.658 507.371 234.993 507.483 234.304C507.413 233.563 507.227 232.837 506.93 232.154L490.223 190.815H499.191L499.314 190.938Z" fill="white"/>
<path d="M554.454 178.053V190.952H566.247V197.094H554.454V221.295C554.454 226.824 556.051 230.018 560.597 230.018C562.211 230.044 563.822 229.858 565.388 229.465L565.756 235.607C563.408 236.421 560.93 236.796 558.447 236.713C556.802 236.816 555.154 236.562 553.617 235.968C552.08 235.374 550.689 234.455 549.541 233.273C547.039 229.927 545.897 225.757 546.347 221.603V197.033H539.344V190.89H546.469V179.957L554.454 178.053Z" fill="white"/>
<path d="M581.408 214.819C581.242 216.902 581.529 218.997 582.251 220.958C582.973 222.919 584.112 224.7 585.59 226.178C587.068 227.655 588.848 228.795 590.809 229.517C592.771 230.239 594.865 230.526 596.948 230.36C601.161 230.454 605.347 229.658 609.233 228.025L610.645 234.168C605.878 236.132 600.751 237.074 595.597 236.932C592.592 237.138 589.578 236.691 586.762 235.623C583.946 234.554 581.395 232.889 579.283 230.742C577.171 228.595 575.548 226.016 574.526 223.183C573.504 220.35 573.107 217.329 573.362 214.328C573.362 200.814 581.408 190.127 594.553 190.127C609.294 190.127 612.979 203.026 612.979 211.257C613.058 212.525 613.058 213.797 612.979 215.065H581.224L581.408 214.819ZM605.486 208.677C605.723 207.035 605.605 205.361 605.141 203.768C604.676 202.175 603.875 200.7 602.793 199.443C601.71 198.186 600.371 197.175 598.864 196.479C597.358 195.783 595.72 195.418 594.061 195.409C590.686 195.653 587.525 197.149 585.195 199.604C582.866 202.058 581.537 205.294 581.47 208.677H605.486Z" fill="white"/>
<path d="M625.468 204.906C625.468 199.624 625.468 195.079 625.099 190.902H632.47V199.685H632.838C633.612 196.974 635.21 194.572 637.412 192.81C639.613 191.049 642.308 190.017 645.123 189.858C645.898 189.756 646.682 189.756 647.457 189.858V197.536C646.518 197.427 645.57 197.427 644.631 197.536C641.843 197.644 639.19 198.763 637.166 200.685C635.143 202.606 633.888 205.199 633.637 207.978C633.407 209.235 633.284 210.509 633.268 211.786V235.68H625.161V204.968L625.468 204.906Z" fill="white"/>
<path d="M621.861 67.564C622.113 71.6906 621.131 75.7988 619.041 79.3653C616.95 82.9319 613.845 85.7953 610.121 87.591C606.397 89.3865 602.223 90.0329 598.131 89.4478C594.038 88.8627 590.213 87.0726 587.141 84.3055C584.069 81.5385 581.891 77.9196 580.883 73.9101C579.876 69.9006 580.084 65.6818 581.483 61.7912C582.881 57.9007 585.406 54.5145 588.735 52.064C592.065 49.6134 596.049 48.2095 600.179 48.0311C602.887 47.8821 605.597 48.2699 608.155 49.1722C610.713 50.0745 613.066 51.4735 615.081 53.2887C617.096 55.104 618.733 57.2997 619.896 59.7496C621.06 62.1995 621.727 64.8552 621.861 67.564Z" fill="#767677"/>
<path d="M500.406 308.121C445.127 308.121 396.542 288.281 371.42 258.982C381.167 285.34 398.755 308.079 421.816 324.139C444.877 340.199 472.305 348.808 500.406 348.808C528.508 348.808 555.936 340.199 578.997 324.139C602.058 308.079 619.646 285.34 629.394 258.982C604.334 288.281 555.932 308.121 500.406 308.121Z" fill="#F37726"/>
<path d="M500.406 117.595C555.687 117.595 604.272 137.435 629.394 166.734C619.646 140.376 602.058 117.637 578.997 101.577C555.936 85.517 528.508 76.9077 500.406 76.9077C472.305 76.9077 444.877 85.517 421.816 101.577C398.755 117.637 381.167 140.376 371.42 166.734C396.542 137.373 444.881 117.595 500.406 117.595Z" fill="#F37726"/>
<path d="M424.309 365.139C424.633 370.336 423.403 375.513 420.774 380.009C418.146 384.505 414.239 388.116 409.551 390.384C404.863 392.651 399.606 393.471 394.45 392.74C389.294 392.009 384.472 389.759 380.599 386.278C376.726 382.797 373.977 378.241 372.703 373.192C371.428 368.142 371.685 362.828 373.442 357.925C375.198 353.023 378.375 348.754 382.566 345.663C386.757 342.572 391.773 340.799 396.976 340.569C400.384 340.387 403.795 340.878 407.013 342.014C410.231 343.15 413.194 344.909 415.732 347.191C418.271 349.473 420.335 352.232 421.806 355.312C423.278 358.391 424.128 361.731 424.309 365.139Z" fill="#9E9E9E"/>
<path d="M377.703 110.918C374.725 111 371.788 110.2 369.263 108.617C366.738 107.035 364.737 104.742 363.512 102.025C362.287 99.3087 361.893 96.2907 362.378 93.3506C362.864 90.4105 364.208 87.6796 366.241 85.5015C368.275 83.3233 370.907 81.795 373.807 81.1088C376.706 80.4226 379.744 80.6091 382.538 81.645C385.332 82.6808 387.758 84.5196 389.509 86.9303C391.261 89.3409 392.261 92.2157 392.383 95.1931C392.5 99.2191 391.023 103.129 388.275 106.073C385.527 109.017 381.728 110.758 377.703 110.918Z" fill="#616262"/>
<rect x="0.5" y="0.5" width="999" height="439" stroke="black"/>
</svg>
