<svg width="1000" height="440" viewBox="0 0 1000 440" fill="none" xmlns="http://www.w3.org/2000/svg">
<rect width="1000" height="440" fill="#10AA50"/>
<path d="M243.919 202.335C234.608 161.259 215.201 150.324 210.25 142.594C208.209 139.189 206.401 135.65 204.838 132C204.576 135.649 204.096 137.948 200.994 140.715C194.766 146.268 168.317 167.821 166.091 214.493C164.017 258.007 198.081 284.84 202.581 287.613C206.042 289.316 210.256 287.65 212.312 286.087C228.733 274.817 251.168 244.774 243.937 202.335" fill="white"/>
<path d="M206.249 264.442C205.391 275.213 204.777 281.471 202.6 287.625C202.6 287.625 204.029 297.879 205.032 308.741H208.584C209.431 301.092 210.725 293.5 212.458 286.002C207.86 283.739 206.425 273.893 206.249 264.442Z" fill="white"/>
<path d="M212.452 286.008C207.806 283.861 206.461 273.808 206.255 264.442C207.404 248.992 207.739 233.493 207.258 218.008C207.015 209.883 207.374 142.753 205.257 132.924C206.705 136.253 208.373 139.482 210.25 142.588C215.201 150.324 234.614 161.259 243.919 202.335C251.168 244.701 228.854 274.665 212.452 286.008Z" fill="white"/>
<path d="M824.882 271.156C822.893 271.156 820.948 270.568 819.292 269.465C817.635 268.362 816.342 266.795 815.575 264.959C814.807 263.124 814.599 261.102 814.977 259.149C815.356 257.196 816.303 255.398 817.7 253.981C819.097 252.565 820.882 251.593 822.829 251.188C824.777 250.783 826.802 250.963 828.647 251.705C830.493 252.448 832.079 253.719 833.204 255.36C834.329 257.001 834.944 258.937 834.972 260.927C835.008 262.268 834.773 263.603 834.28 264.851C833.788 266.099 833.048 267.235 832.106 268.191C831.164 269.146 830.038 269.901 828.797 270.411C827.555 270.92 826.224 271.174 824.882 271.156V271.156ZM824.882 251.889C823.064 251.877 821.284 252.405 819.766 253.406C818.249 254.406 817.062 255.835 816.357 257.51C815.652 259.186 815.46 261.033 815.805 262.818C816.151 264.602 817.018 266.245 818.298 267.536C819.577 268.827 821.211 269.71 822.992 270.072C824.774 270.434 826.623 270.259 828.305 269.57C829.987 268.88 831.426 267.707 832.441 266.199C833.456 264.69 834 262.915 834.005 261.097C834.028 259.889 833.809 258.688 833.36 257.565C832.911 256.443 832.242 255.422 831.391 254.564C830.54 253.705 829.526 253.026 828.408 252.567C827.29 252.107 826.091 251.877 824.882 251.889V251.889ZM827.315 267.446L824.712 261.833H822.614V267.446H821.087V254.675H824.852C827.655 254.675 828.823 255.891 828.823 258.245C828.823 260.118 827.941 261.286 826.299 261.644L828.987 267.428L827.315 267.446ZM822.675 260.513H824.882C826.67 260.513 827.351 259.905 827.351 258.275C827.351 256.645 826.701 256.092 824.688 256.092H822.675V260.513Z" fill="white"/>
<path d="M674.718 261.961C677.449 264.144 682.904 265.044 687.715 265.044C693.949 265.044 700.061 263.888 706.033 258.494C712.115 252.966 716.299 244.506 716.299 230.998C716.299 218.02 711.361 207.487 701.228 201.32C695.512 197.725 688.104 196.308 679.657 196.308C677.224 196.308 674.718 196.436 673.295 197.081C672.712 197.541 672.299 198.183 672.121 198.905C671.866 201.216 671.866 218.817 671.866 229.223C671.866 239.89 671.866 254.766 672.121 256.59C672.255 258.135 673.034 260.848 674.718 261.985V261.961ZM648.786 190.531C650.993 190.531 659.386 190.914 663.291 190.914C670.589 190.914 675.63 190.531 689.272 190.531C700.705 190.531 710.327 193.614 717.205 199.519C725.525 206.72 729.977 216.737 729.977 228.943C729.977 246.288 722.071 256.311 714.122 261.961C706.215 267.872 695.931 271.211 681.28 271.211C673.484 271.211 660.098 270.955 648.926 270.828H648.694C648.171 269.8 649.649 265.792 650.562 265.689C653.602 265.348 654.405 265.226 655.804 264.649C658.164 263.682 658.717 262.478 658.979 258.239C659.368 250.271 659.24 240.766 659.24 229.971C659.24 222.265 659.368 207.231 659.112 202.475C658.717 198.498 657.039 197.47 653.639 196.698C651.228 196.185 648.792 195.8 646.341 195.542C646.085 194.77 648.08 191.285 648.731 190.531" fill="white"/>
<path d="M762.18 197.05C761.663 197.178 761.012 198.467 761.012 199.106C760.878 203.734 760.75 215.806 760.75 224.157C760.783 224.316 760.863 224.462 760.978 224.577C761.094 224.692 761.241 224.77 761.401 224.801C763.086 224.929 767.246 225.063 770.755 225.063C775.693 225.063 778.552 224.418 780.109 223.646C784.268 221.59 786.19 217.09 786.19 212.212C786.19 201.034 778.393 196.795 766.832 196.795C765.269 196.775 763.707 196.86 762.155 197.05H762.18ZM791.652 248.441C791.652 237.135 783.332 230.713 768.128 230.713C767.483 230.713 762.654 230.585 761.505 230.84C761.115 230.968 760.726 231.224 760.726 231.485C760.726 239.58 760.592 252.552 760.988 257.691C761.249 259.875 762.812 262.958 764.752 263.858C766.832 265.014 771.509 265.269 774.757 265.269C783.721 265.269 791.652 260.264 791.652 248.441V248.441ZM738.704 190.756C739.878 190.756 743.332 191.139 752.169 191.139C760.483 191.139 767.24 190.883 775.28 190.883C785.284 190.883 799.053 194.484 799.053 209.384C799.053 216.682 793.859 222.618 787.102 225.446C786.713 225.574 786.713 225.829 787.102 225.957C796.718 228.389 805.159 234.307 805.159 245.613C805.159 256.663 798.275 263.603 788.27 267.969C782.188 270.67 774.629 271.564 766.984 271.564C761.14 271.564 745.473 270.955 736.764 271.053C735.852 270.67 737.597 266.552 738.376 265.914C740.371 265.852 742.351 265.542 744.269 264.989C747.383 264.223 747.754 263.219 748.143 258.591C748.404 254.608 748.404 240.346 748.404 230.196C748.404 216.317 748.538 206.945 748.404 202.317C748.277 198.723 746.975 197.561 744.506 196.923C742.56 196.533 739.312 196.15 736.715 195.767C736.065 195.122 738.066 191.267 738.71 190.756" fill="white"/>
<path d="M272.692 271.156C272.357 270.334 272.221 269.444 272.296 268.559C272.267 267.956 272.404 267.357 272.692 266.826C274.372 266.584 276.037 266.244 277.679 265.81C279.977 265.239 280.841 263.986 280.975 261.054C281.352 254.127 281.376 241.131 281.242 231.996V231.728C281.242 230.743 281.242 229.405 280.026 228.462C277.888 227.121 275.567 226.097 273.135 225.421C272.047 225.099 271.445 224.527 271.475 223.858C271.506 223.189 272.193 222.399 273.61 222.119C277.374 221.736 287.239 219.382 291.113 217.594C291.512 218.114 291.697 218.767 291.63 219.419C291.63 219.82 291.569 220.246 291.527 220.684C291.417 221.973 291.296 223.439 291.296 224.898C291.319 225.076 291.392 225.243 291.506 225.381C291.62 225.519 291.77 225.623 291.939 225.68C292.108 225.738 292.29 225.747 292.465 225.707C292.639 225.666 292.799 225.578 292.925 225.452C300.303 219.668 306.913 217.606 310.301 217.606C315.878 217.606 320.22 220.27 323.583 225.756C323.661 225.888 323.77 225.999 323.902 226.077C324.035 226.154 324.184 226.197 324.338 226.2C324.477 226.199 324.614 226.164 324.737 226.098C324.859 226.032 324.965 225.938 325.043 225.823C331.824 220.678 338.544 217.606 343.045 217.606C353.676 217.606 360.031 225.567 360.031 238.893C360.031 242.724 359.995 247.583 359.958 252.114C359.928 256.092 359.897 259.82 359.897 262.398C359.897 263.007 360.737 264.758 361.996 265.105C363.553 265.865 365.797 266.254 368.637 266.741H368.746C368.959 267.507 368.509 270.481 368.077 271.089C367.372 271.089 366.399 271.028 365.182 270.968C362.975 270.858 359.946 270.706 356.425 270.706C349.358 270.706 345.666 270.84 342.139 271.071C341.871 270.189 341.78 267.343 342.102 266.747C343.563 266.518 345.009 266.204 346.432 265.804C348.683 265.062 349.333 264.04 349.473 261.054C349.528 258.932 349.936 240.231 349.212 235.791C348.543 231.187 345.076 225.799 337.492 225.799C334.676 225.799 330.133 226.972 325.803 230.256C325.535 230.561 325.384 230.951 325.378 231.357V231.448C325.888 233.845 325.888 236.642 325.888 240.869C325.888 243.302 325.888 245.838 325.858 248.374C325.828 253.531 325.803 258.397 325.888 262.076C325.888 264.582 327.403 265.184 328.625 265.664C329.288 265.81 329.811 265.938 330.34 266.06C331.356 266.309 332.414 266.564 333.989 266.814C334.222 267.882 334.202 268.99 333.928 270.049C333.864 270.447 333.708 270.824 333.472 271.15C329.544 271.016 325.511 270.901 319.691 270.901C317.927 270.901 315.051 270.974 312.509 271.041C310.447 271.095 308.501 271.15 307.394 271.156C307.095 270.45 306.961 269.684 307.005 268.918C306.942 268.196 307.084 267.472 307.412 266.826L308.975 266.54C310.337 266.297 311.517 266.09 312.624 265.81C314.546 265.202 315.27 264.156 315.41 261.705C315.787 255.988 316.079 239.513 315.27 235.389C313.895 228.773 310.131 225.415 304.073 225.415C300.528 225.415 296.045 227.124 292.384 229.867C292.032 230.21 291.755 230.622 291.569 231.077C291.384 231.533 291.295 232.021 291.308 232.513C291.308 234.477 291.308 236.813 291.308 239.318C291.308 247.589 291.253 257.886 291.454 262.338C291.575 263.712 292.062 265.342 294.634 265.938C295.2 266.102 296.173 266.26 297.304 266.449C297.955 266.558 298.667 266.674 299.402 266.808C299.636 268.264 299.518 269.755 299.056 271.156C297.925 271.156 296.532 271.083 294.938 271.016C292.506 270.907 289.465 270.773 286.029 270.773C281.966 270.773 279.138 270.907 276.87 271.016C275.343 271.089 274.023 271.15 272.704 271.156" fill="white"/>
<path d="M403.114 223.104C400.919 223.059 398.76 223.666 396.911 224.85C392.398 227.593 390.099 233.072 390.099 241.125C390.099 256.195 397.647 266.723 408.454 266.723C411.352 266.814 414.178 265.814 416.372 263.919C419.693 261.212 421.457 255.678 421.457 247.93C421.457 233.084 414.08 223.104 403.102 223.104H403.114ZM405.182 272.312C385.66 272.312 378.708 257.989 378.708 244.591C378.708 235.231 382.534 227.915 390.081 222.837C395.367 219.564 401.435 217.77 407.651 217.643C422.545 217.643 432.951 228.353 432.951 243.697C432.951 254.121 428.797 262.356 420.934 267.501C417.157 269.812 410.595 272.312 405.182 272.312" fill="white"/>
<path d="M601.865 223.104C599.666 223.054 597.502 223.662 595.65 224.85C591.137 227.593 588.838 233.072 588.838 241.125C588.838 256.195 596.386 266.723 607.193 266.723C610.099 266.821 612.935 265.819 615.136 263.919C618.456 261.212 620.214 255.678 620.214 247.93C620.214 233.084 612.843 223.104 601.865 223.104V223.104ZM603.945 272.312C584.423 272.312 577.471 257.989 577.471 244.597C577.471 235.225 581.297 227.915 588.85 222.837C594.134 219.562 600.2 217.768 606.414 217.643C621.309 217.643 631.714 228.359 631.714 243.691C631.714 254.127 627.561 262.356 619.697 267.495C615.92 269.812 609.358 272.312 603.945 272.312" fill="white"/>
<path d="M536.134 222.593C530.119 222.593 526.227 227.343 526.227 234.696C526.227 242.049 529.578 250.788 538.998 250.788C540.616 250.788 543.547 250.071 545.001 248.471C547.19 246.458 548.65 242.298 548.65 237.907C548.65 228.316 543.979 222.593 536.164 222.593H536.134ZM535.386 273.339C533.687 273.321 532.011 273.74 530.52 274.556C525.758 277.597 523.551 280.638 523.551 284.171C523.551 287.479 524.834 290.113 527.595 292.448C530.94 295.282 535.453 296.663 541.382 296.663C553.053 296.663 558.284 290.387 558.284 284.171C558.284 279.841 556.112 276.94 551.642 275.298C548.2 274.039 542.447 273.346 535.404 273.346L535.386 273.339ZM536.183 303.146C529.176 303.146 524.129 301.668 519.817 298.348C515.62 295.112 513.735 290.307 513.735 286.987C513.78 284.847 514.597 282.795 516.034 281.209C517.25 279.823 520.078 277.226 526.616 272.731C526.717 272.688 526.804 272.616 526.864 272.524C526.925 272.432 526.957 272.324 526.957 272.214C526.959 272.091 526.919 271.971 526.844 271.874C526.768 271.777 526.662 271.708 526.543 271.679C521.161 269.617 519.537 266.206 519.044 264.381C519.044 264.314 519.044 264.211 518.989 264.095C518.837 263.378 518.691 262.696 519.671 261.997C520.425 261.462 521.629 260.744 522.918 259.984C524.738 258.976 526.484 257.84 528.142 256.584C528.232 256.488 528.298 256.374 528.336 256.248C528.373 256.123 528.382 255.991 528.361 255.862C528.34 255.732 528.289 255.61 528.214 255.503C528.138 255.397 528.039 255.309 527.924 255.246C519.956 252.57 515.942 246.653 515.942 237.609C515.918 234.789 516.574 232.005 517.855 229.492C519.136 226.98 521.005 224.814 523.301 223.177C526.506 220.641 534.553 217.594 539.765 217.594H540.069C545.427 217.722 548.449 218.847 552.634 220.392C555.014 221.253 557.536 221.653 560.065 221.572C564.499 221.572 566.439 220.167 568.106 218.531C568.376 219.268 568.52 220.045 568.531 220.83C568.633 222.7 568.125 224.552 567.084 226.109C566.178 227.368 564.043 228.28 562.091 228.28C561.89 228.28 561.695 228.28 561.483 228.249C560.455 228.177 559.437 228.008 558.442 227.745L557.943 227.921C557.785 228.152 557.888 228.408 558.016 228.736C558.047 228.8 558.072 228.867 558.089 228.937C558.445 230.56 558.687 232.206 558.813 233.863C558.813 243.32 555.085 247.437 551.052 250.49C547.154 253.415 542.524 255.208 537.673 255.672V255.672C537.569 255.672 537.064 255.715 536.116 255.8C535.507 255.854 534.717 255.927 534.601 255.927H534.486C533.61 256.171 531.323 257.259 531.323 259.285C531.323 260.963 532.357 263.049 537.302 263.426L540.501 263.651C547.02 264.107 555.164 264.673 558.995 265.968C561.537 266.862 563.732 268.535 565.268 270.748C566.804 272.961 567.604 275.602 567.552 278.296C567.552 286.78 561.519 294.759 551.417 299.637C546.653 301.912 541.437 303.083 536.158 303.061" fill="white"/>
<path d="M506.297 266.631C503.438 266.248 501.352 265.859 498.889 264.703C498.406 264.203 498.088 263.566 497.977 262.879C497.716 258.895 497.716 247.334 497.716 239.768C497.716 233.595 496.682 228.213 494.066 224.351C490.947 219.978 486.531 217.412 480.814 217.412C475.748 217.412 468.992 220.878 463.408 225.634C463.275 225.762 462.417 226.577 462.435 225.312C462.454 224.047 462.648 221.481 462.77 219.838C462.824 219.402 462.775 218.959 462.627 218.545C462.479 218.131 462.237 217.758 461.918 217.454C458.269 219.279 448.034 221.712 444.245 222.083C441.484 222.618 440.784 225.276 443.734 226.194H443.777C446.138 226.845 448.391 227.837 450.467 229.137C451.634 230.038 451.507 231.321 451.507 232.349C451.634 240.954 451.634 254.188 451.245 261.383C451.117 264.211 450.333 265.239 448.253 265.756L448.447 265.689C446.864 266.086 445.257 266.386 443.637 266.589C442.986 267.227 442.986 270.955 443.637 271.728C444.938 271.728 451.543 271.345 457.017 271.345C464.546 271.345 468.444 271.728 470.396 271.728C471.181 270.828 471.436 267.361 470.919 266.589C469.12 266.507 467.334 266.249 465.586 265.816C463.512 265.305 462.989 264.272 462.861 261.967C462.606 255.921 462.606 243.077 462.606 234.337C462.606 231.905 463.25 230.743 464.029 230.08C466.626 227.769 470.919 226.23 474.684 226.23C478.333 226.23 480.766 227.386 482.59 228.925C484.715 230.779 486.048 233.378 486.312 236.186C486.829 241.052 486.695 250.837 486.695 259.297C486.695 263.925 486.312 265.087 484.622 265.597C483.843 265.981 481.763 266.37 479.294 266.625C478.516 267.398 478.771 270.992 479.294 271.764C482.669 271.764 486.592 271.381 492.285 271.381C499.431 271.381 503.98 271.764 505.798 271.764C506.577 270.864 506.838 267.507 506.321 266.625" fill="white"/>
</svg>
