<svg width="1000" height="440" viewBox="0 0 1000 440" fill="none" xmlns="http://www.w3.org/2000/svg">
<rect width="1000" height="440" fill="#F7DF1E"/>
<path fill-rule="evenodd" clip-rule="evenodd" d="M344.532 226.148C344.532 223.889 343.341 221.815 341.392 220.692L289.401 190.778C288.523 190.263 287.54 189.993 286.543 189.956H286.006C285.009 189.993 284.026 190.263 283.133 190.778L231.145 220.692C229.208 221.821 228 223.896 228 226.154L228.114 306.726C228.114 307.843 228.691 308.886 229.673 309.439C230.63 310.028 231.833 310.028 232.791 309.439L263.699 291.738C265.65 290.577 266.841 288.525 266.841 286.288V248.648C266.841 246.401 268.032 244.327 269.977 243.21L283.136 235.631C284.113 235.067 285.186 234.787 286.278 234.787C287.354 234.787 288.451 235.064 289.401 235.63L302.553 243.206C304.5 244.323 305.696 246.398 305.696 248.644V286.282C305.696 288.516 306.902 290.578 308.844 291.732L339.733 309.42C340.702 309.997 341.909 309.997 342.875 309.42C343.827 308.868 344.431 307.824 344.431 306.707L344.532 226.148ZM589.866 268.098C589.866 268.659 589.568 269.178 589.08 269.456L571.223 279.75C570.738 280.028 570.139 280.028 569.655 279.75L551.796 269.456C551.305 269.177 551.01 268.658 551.01 268.098V247.482C551.01 246.919 551.305 246.401 551.783 246.119L569.631 235.808C570.122 235.526 570.723 235.526 571.214 235.808L589.074 246.119C589.565 246.401 589.86 246.919 589.86 247.482L589.866 268.098ZM594.69 115.397C593.715 114.855 592.529 114.87 591.567 115.431C590.61 115.995 590.018 117.026 590.018 118.143V197.929C590.018 198.715 589.601 199.439 588.921 199.832C588.246 200.225 587.405 200.225 586.723 199.832L573.7 192.331C571.76 191.209 569.372 191.209 567.425 192.331L515.417 222.346C513.474 223.463 512.274 225.538 512.274 227.772V287.82C512.274 290.067 513.474 292.129 515.417 293.258L567.425 323.294C569.367 324.411 571.758 324.411 573.706 323.294L625.714 293.246C627.654 292.116 628.857 290.054 628.857 287.808V138.154C628.857 135.875 627.617 133.78 625.628 132.667L594.69 115.397ZM767.879 246.939C769.811 245.817 771 243.745 771 241.511V226.958C771 224.719 769.809 222.653 767.874 221.527L716.197 191.527C714.245 190.398 711.851 190.398 709.9 191.527L657.904 221.539C655.952 222.668 654.761 224.73 654.761 226.977V287C654.761 289.259 655.977 291.346 657.928 292.463L709.593 321.91C711.495 323.002 713.828 323.015 715.755 321.947L747.006 304.578C747.988 304.025 748.614 302.982 748.614 301.853C748.614 300.723 748.013 299.668 747.031 299.115L694.716 269.091C693.734 268.539 693.132 267.496 693.132 266.379V247.549C693.132 246.425 693.722 245.389 694.704 244.829L710.98 235.439C711.95 234.874 713.14 234.874 714.11 235.439L730.399 244.829C731.368 245.381 731.97 246.425 731.97 247.542V262.345C731.97 263.462 732.571 264.505 733.541 265.07C734.511 265.622 735.714 265.622 736.683 265.058L767.879 246.939Z" fill="white"/>
<path d="M494.147 220.091L407.728 177.732L363.417 268.125L449.834 310.487L494.147 220.091Z" fill="url(#paint0_linear_4_165)"/>
<path d="M357.806 232.62L418.827 315.209L499.528 255.585L438.504 172.999L357.806 232.62Z" fill="url(#paint1_linear_4_165)"/>
<path d="M396.351 204.907V283.111H463.093V204.907H396.351Z" fill="url(#paint2_linear_4_165)"/>
<defs>
<linearGradient id="paint0_linear_4_165" x1="450.912" y1="198.845" x2="406.604" y2="289.232" gradientUnits="userSpaceOnUse">
<stop offset="0.3" stop-color="#3E863D"/>
<stop offset="0.5" stop-color="#55934F"/>
<stop offset="0.8" stop-color="#5AAD45"/>
</linearGradient>
<linearGradient id="paint1_linear_4_165" x1="388.682" y1="274.388" x2="469.387" y2="214.757" gradientUnits="userSpaceOnUse">
<stop offset="0.57" stop-color="#3E863D"/>
<stop offset="0.72" stop-color="#619857"/>
<stop offset="1" stop-color="#76AC64"/>
</linearGradient>
<linearGradient id="paint2_linear_4_165" x1="396.374" y1="244.011" x2="463.105" y2="244.011" gradientUnits="userSpaceOnUse">
<stop offset="0.16" stop-color="#6BBF47"/>
<stop offset="0.38" stop-color="#79B461"/>
<stop offset="0.47" stop-color="#75AC64"/>
<stop offset="0.7" stop-color="#659E5A"/>
<stop offset="0.9" stop-color="#3E863D"/>
</linearGradient>
</defs>
</svg>
