<svg width="1000" height="440" viewBox="0 0 1000 440" fill="none" xmlns="http://www.w3.org/2000/svg">
<rect x="0.5" y="0.5" width="999" height="439" fill="#002C4C"/>
<path d="M480.178 136.32L433.05 112.534L381.315 138.351L429.725 162.657L480.178 136.32Z" fill="#4DABCF"/>
<path d="M501.794 147.223L551.206 172.177L499.941 197.918L451.454 173.573L501.794 147.223Z" fill="#4DABCF"/>
<path d="M567.796 112.889L618.567 138.351L573.152 161.147L523.638 136.168L567.796 112.889Z" fill="#4DABCF"/>
<path d="M545.939 101.923L500.233 79L455.021 101.568L502.124 125.316L545.939 101.923Z" fill="#4DABCF"/>
<path d="M510.209 298.736V361.108L565.575 333.476L565.524 271.079L510.209 298.736Z" fill="#4DABCF"/>
<path d="M565.498 249.298L565.435 187.561L510.209 215.015V276.778L565.498 249.298Z" fill="#4DABCF"/>
<path d="M631.97 237.735V300.348L584.74 323.906L584.702 261.584L631.97 237.735Z" fill="#4DABCF"/>
<path d="M631.97 215.84V154.483L584.652 178.003L584.69 239.867L631.97 215.84Z" fill="#4DABCF"/>
<path d="M490.662 215.015L453.371 196.255V277.285C453.371 277.285 407.754 180.237 403.54 171.517C402.994 170.387 400.76 169.156 400.189 168.852C391.964 164.561 368 152.427 368 152.427V295.639L401.153 313.409V238.522C401.153 238.522 446.276 325.238 446.745 326.19C447.215 327.142 451.721 336.268 456.57 339.479C463.005 343.757 490.637 360.372 490.637 360.372L490.662 215.015Z" fill="white"/>
<rect x="0.5" y="0.5" width="999" height="439" stroke="black"/>
</svg>
