<svg width="1000" height="440" viewBox="0 0 1000 440" fill="none" xmlns="http://www.w3.org/2000/svg">
<rect x="0.5" y="0.5" width="999" height="439" fill="#002C4C"/>
<path d="M444.826 105.653C447.248 101.245 452.9 99.5919 457.476 102.347C461.782 104.826 463.397 110.612 460.705 115.295C458.552 119.428 460.167 126.04 462.32 132.927C465.55 145.049 469.049 157.722 460.705 172.323C458.283 177.007 452.631 178.384 448.056 175.905C443.749 173.15 442.135 167.364 444.826 162.957C449.132 155.243 446.71 146.427 444.288 138.162C441.327 127.417 438.367 116.948 444.826 105.653V105.653ZM443.211 337.347C426.255 326.603 411.991 308.144 401.763 287.206C390.459 263.789 384 237.066 384 215.301C384 210.067 388.037 205.659 393.42 205.659H606.58C611.694 205.659 616 210.067 616 215.301C616 237.066 609.541 263.789 597.968 287.206C588.009 308.144 573.745 326.603 556.52 337.347C555.174 338.449 553.29 339 551.137 339H448.863C446.71 339 444.826 338.449 443.211 337.347V337.347ZM403.109 224.668C404.455 241.749 410.107 261.309 418.45 278.666C426.794 296.022 438.097 311.175 451.285 319.991H548.445C561.903 311.175 573.207 296.022 581.55 278.666C589.893 261.309 595.276 241.749 596.891 224.668H403.109V224.668ZM537.949 105.653C540.371 101.245 546.023 99.5919 550.599 102.347C554.905 104.826 556.52 110.612 553.828 115.295C551.406 119.428 553.29 126.04 555.174 132.927C558.673 145.049 562.172 157.722 553.828 172.323C551.406 177.007 545.754 178.384 541.179 175.905C536.872 173.15 535.258 167.364 537.949 162.957C542.255 155.243 539.564 146.427 537.411 138.162C534.45 127.417 531.49 116.948 537.949 105.653V105.653ZM491.387 105.653C493.81 101.245 499.462 99.5919 504.037 102.347C508.343 104.826 509.958 110.612 507.267 115.295C504.845 119.428 506.729 126.04 508.613 132.927C512.111 145.049 515.61 157.722 507.267 172.323C504.845 177.007 499.193 178.384 494.617 175.905C490.311 173.15 488.696 167.364 491.387 162.957C495.694 155.243 493.271 146.427 490.849 138.162C487.889 127.417 484.928 116.948 491.387 105.653V105.653Z" fill="white"/>
<rect x="0.5" y="0.5" width="999" height="439" stroke="black"/>
</svg>
