<svg width="1000" height="440" viewBox="0 0 1000 440" fill="none" xmlns="http://www.w3.org/2000/svg">
<rect x="0.5" y="0.5" width="999" height="439" fill="#002C4C"/>
<path d="M463.215 207C451.776 200.394 442.836 190.196 437.782 177.99C432.727 165.783 431.841 152.249 435.259 139.486C438.678 126.724 446.21 115.446 456.689 107.403C467.168 99.3597 480.007 95 493.215 95C506.423 95 519.262 99.3597 529.74 107.403C540.219 115.446 547.752 126.724 551.17 139.486C554.589 152.249 553.702 165.783 548.647 177.99C543.593 190.196 534.653 200.394 523.215 207L505.15 175.7C509.7 173.071 513.257 169.015 515.268 164.158C517.278 159.302 517.631 153.918 516.271 148.841C514.911 143.763 511.914 139.277 507.746 136.077C503.577 132.877 498.469 131.143 493.215 131.143C487.96 131.143 482.852 132.877 478.684 136.077C474.515 139.277 471.518 143.763 470.158 148.841C468.798 153.918 469.151 159.302 471.162 164.158C473.173 169.015 476.729 173.071 481.28 175.7L463.215 207Z" fill="white"/>
<path d="M592.215 222C603.653 228.606 612.593 238.804 617.647 251.01C622.702 263.217 623.589 276.751 620.17 289.514C616.752 302.276 609.219 313.554 598.74 321.597C588.262 329.64 575.423 334 562.215 334C549.007 334 536.168 329.64 525.689 321.597C515.21 313.554 507.678 302.276 504.259 289.514C500.841 276.751 501.727 263.217 506.782 251.01C511.836 238.804 520.776 228.606 532.215 222L550.28 253.3C545.729 255.929 542.173 259.985 540.162 264.842C538.151 269.698 537.798 275.082 539.158 280.159C540.518 285.237 543.515 289.723 547.684 292.923C551.852 296.123 556.96 297.857 562.215 297.857C567.469 297.857 572.577 296.123 576.746 292.923C580.914 289.723 583.911 285.237 585.271 280.159C586.631 275.082 586.278 269.698 584.268 264.842C582.257 259.985 578.7 255.929 574.15 253.3L592.215 222Z" fill="white"/>
<path d="M486.283 273.853C486.283 287.091 481.915 299.959 473.856 310.461C465.797 320.964 454.498 328.513 441.711 331.94C428.925 335.366 415.364 334.477 403.134 329.411C390.904 324.345 380.687 315.385 374.068 303.921C367.449 292.456 364.798 279.128 366.526 266.004C368.254 252.879 374.264 240.691 383.625 231.33C392.985 221.97 405.173 215.959 418.298 214.231C431.423 212.504 444.751 215.155 456.215 221.774L438.109 253.134C433.548 250.501 428.246 249.446 423.024 250.134C417.803 250.821 412.954 253.212 409.23 256.936C405.506 260.66 403.115 265.509 402.428 270.73C401.741 275.952 402.795 281.254 405.428 285.815C408.062 290.376 412.126 293.94 416.992 295.956C421.857 297.971 427.252 298.325 432.339 296.961C437.426 295.598 441.921 292.595 445.127 288.417C448.333 284.239 450.071 279.119 450.071 273.853L486.283 273.853Z" fill="white"/>
<rect x="0.5" y="0.5" width="999" height="439" stroke="black"/>
</svg>
