<svg width="1000" height="440" viewBox="0 0 1000 440" fill="none" xmlns="http://www.w3.org/2000/svg">
<rect width="1000" height="440" fill="#F7DF1E"/>
<path d="M499.623 248.822C516.088 248.822 529.435 235.475 529.435 219.011C529.435 202.546 516.088 189.2 499.623 189.2C483.159 189.2 469.812 202.546 469.812 219.011C469.812 235.475 483.159 248.822 499.623 248.822Z" fill="white"/>
<path d="M660.03 219.533C660.03 198.332 633.48 178.241 592.775 165.781C602.169 124.293 597.994 91.2859 579.598 80.7182C575.358 78.2394 570.401 77.0652 564.986 77.0652V91.612C567.987 91.612 570.401 92.1991 572.423 93.3081C581.294 98.3962 585.143 117.77 582.142 142.689C581.425 148.821 580.251 155.279 578.815 161.867C566.03 158.736 552.07 156.322 537.393 154.757C528.587 142.689 519.454 131.73 510.256 122.141C531.522 102.375 551.483 91.5468 565.051 91.5468V77C547.113 77 523.629 89.7855 499.884 111.965C476.14 89.916 452.656 77.2609 434.717 77.2609V91.8077C448.22 91.8077 468.247 102.571 489.512 122.206C480.38 131.795 471.247 142.689 462.572 154.757C447.829 156.322 433.869 158.736 421.084 161.932C419.583 155.409 418.474 149.082 417.692 143.015C414.626 118.096 418.409 98.7224 427.216 93.569C429.173 92.3948 431.717 91.873 434.717 91.873V77.3262C429.238 77.3262 424.28 78.5003 419.975 80.9792C401.645 91.5468 397.535 124.489 406.994 165.846C366.419 178.371 340 198.397 340 219.533C340 240.733 366.55 260.825 407.255 273.284C397.861 314.772 402.036 347.779 420.431 358.347C424.672 360.826 429.629 362 435.109 362C453.048 362 476.531 349.214 500.276 327.035C524.02 349.084 547.504 361.739 565.443 361.739C570.922 361.739 575.88 360.565 580.185 358.086C598.516 347.518 602.625 314.576 593.167 273.219C633.611 260.759 660.03 240.668 660.03 219.533ZM575.097 176.023C572.684 184.438 569.683 193.114 566.291 201.789C563.616 196.571 560.811 191.352 557.745 186.134C554.745 180.915 551.548 175.827 548.352 170.869C557.615 172.239 566.552 173.935 575.097 176.023ZM545.221 245.495C540.133 254.301 534.914 262.651 529.5 270.414C519.78 271.262 509.93 271.718 500.015 271.718C490.165 271.718 480.315 271.262 470.66 270.479C465.246 262.716 459.962 254.432 454.874 245.691C449.916 237.145 445.415 228.469 441.306 219.728C445.35 210.987 449.916 202.246 454.809 193.701C459.897 184.894 465.116 176.545 470.53 168.782C480.249 167.934 490.1 167.477 500.015 167.477C509.865 167.477 519.715 167.934 529.369 168.717C534.784 176.479 540.068 184.764 545.156 193.505C550.113 202.05 554.614 210.726 558.724 219.467C554.614 228.208 550.113 236.95 545.221 245.495ZM566.291 237.015C569.813 245.756 572.814 254.497 575.293 262.977C566.748 265.065 557.745 266.826 548.417 268.196C551.614 263.173 554.81 258.02 557.811 252.736C560.811 247.517 563.616 242.233 566.291 237.015ZM500.145 306.618C494.079 300.355 488.012 293.376 482.011 285.743C487.882 286.004 493.883 286.2 499.95 286.2C506.081 286.2 512.148 286.07 518.084 285.743C512.213 293.376 506.147 300.355 500.145 306.618ZM451.612 268.196C442.349 266.826 433.413 265.13 424.867 263.043C427.281 254.628 430.282 245.952 433.674 237.276C436.348 242.494 439.153 247.713 442.219 252.932C445.285 258.15 448.416 263.238 451.612 268.196ZM499.819 132.447C505.886 138.71 511.952 145.69 517.954 153.322C512.083 153.061 506.081 152.865 500.015 152.865C493.883 152.865 487.816 152.996 481.88 153.322C487.751 145.69 493.818 138.71 499.819 132.447ZM451.547 170.869C448.351 175.892 445.154 181.046 442.154 186.329C439.153 191.548 436.348 196.767 433.674 201.985C430.151 193.244 427.15 184.503 424.672 176.023C433.217 174 442.219 172.239 451.547 170.869ZM392.512 252.54C369.42 242.69 354.482 229.774 354.482 219.533C354.482 209.291 369.42 196.31 392.512 186.525C398.122 184.111 404.254 181.959 410.581 179.937C414.3 192.722 419.192 206.03 425.259 219.663C419.257 233.231 414.43 246.474 410.777 259.194C404.319 257.172 398.187 254.954 392.512 252.54ZM427.607 345.757C418.735 340.669 414.887 321.295 417.887 296.376C418.605 290.244 419.779 283.786 421.214 277.198C434 280.329 447.959 282.743 462.637 284.308C471.443 296.376 480.576 307.335 489.773 316.924C468.508 336.69 448.547 347.518 434.978 347.518C432.043 347.453 429.564 346.866 427.607 345.757ZM582.338 296.05C585.404 320.969 581.62 340.343 572.814 345.496C570.857 346.67 568.313 347.192 565.312 347.192C551.809 347.192 531.783 336.429 510.517 316.794C519.65 307.205 528.782 296.311 537.458 284.243C552.201 282.677 566.16 280.264 578.946 277.068C580.446 283.656 581.62 289.983 582.338 296.05ZM607.452 252.54C601.843 254.954 595.711 257.106 589.383 259.129C585.665 246.343 580.772 233.036 574.706 219.402C580.707 205.834 585.534 192.592 589.187 179.871C595.645 181.894 601.777 184.111 607.518 186.525C630.61 196.375 645.548 209.291 645.548 219.533C645.483 229.774 630.545 242.755 607.452 252.54Z" fill="white"/>
</svg>
