<svg width="1000" height="440" viewBox="0 0 1000 440" fill="none" xmlns="http://www.w3.org/2000/svg">
<rect width="1000" height="440" fill="#A52B00"/>
<path d="M623.613 216.397L613.135 209.905C613.047 208.884 612.947 207.864 612.837 206.85L621.859 198.448C622.775 197.594 623.186 196.329 622.938 195.107C622.697 193.878 621.835 192.866 620.663 192.434L609.135 188.138C608.846 187.14 608.543 186.149 608.233 185.154L615.417 175.177C616.15 174.163 616.3 172.843 615.823 171.693C615.345 170.54 614.302 169.714 613.078 169.511L600.929 167.535C600.457 166.613 599.965 165.706 599.468 164.814L604.576 153.596C605.099 152.455 604.991 151.137 604.294 150.087C603.6 149.047 602.423 148.438 601.168 148.486L588.828 148.915C588.191 148.118 587.542 147.328 586.88 146.552L589.721 134.547C590.007 133.327 589.647 132.041 588.759 131.158C587.878 130.274 586.599 129.909 585.37 130.196L573.364 133.036C572.586 132.377 571.796 131.726 570.996 131.088L571.428 118.749C571.476 117.5 570.867 116.314 569.827 115.622C568.784 114.925 567.464 114.82 566.318 115.338L555.124 120.446C554.22 119.949 553.313 119.458 552.403 118.983L550.422 106.834C550.222 105.602 549.396 104.557 548.241 104.089C547.088 103.609 545.758 103.764 544.756 104.495L534.779 111.679C533.796 111.366 532.808 111.066 531.82 110.779L527.523 99.251C527.086 98.0766 526.074 97.215 524.85 96.9716C523.623 96.7305 522.368 97.1386 521.509 98.0504L513.107 107.072C512.093 106.96 511.071 106.858 510.052 106.774L503.56 96.2722C502.903 95.2101 501.741 94.5633 500.481 94.5633C499.221 94.5633 498.07 95.2101 497.426 96.2722L490.934 106.774C489.912 106.858 488.891 106.96 487.879 107.072L479.477 98.0504C478.625 97.1386 477.36 96.7305 476.136 96.9716C474.906 97.2174 473.894 98.0766 473.462 99.251L469.166 110.779C468.169 111.066 467.18 111.369 466.207 111.679L456.23 104.495C455.215 103.762 453.893 103.607 452.745 104.089C451.592 104.566 450.764 105.612 450.564 106.834L448.582 118.983C447.666 119.458 446.759 119.947 445.862 120.446L434.667 115.338C433.529 114.818 432.209 114.925 431.159 115.622C430.118 116.314 429.51 117.5 429.557 118.749L429.987 131.088C429.19 131.726 428.4 132.377 427.619 133.036L415.614 130.196C414.394 129.912 413.108 130.274 412.224 131.158C411.337 132.043 410.976 133.32 411.263 134.547L414.079 146.552C413.423 147.331 412.773 148.118 412.136 148.915L399.796 148.486C398.553 148.45 397.362 149.047 396.67 150.087C395.973 151.123 395.868 152.45 396.386 153.596L401.493 164.814C400.997 165.714 400.505 166.621 400.03 167.535L387.882 169.511C386.648 169.711 385.607 170.537 385.137 171.693C384.659 172.85 384.815 174.175 385.543 175.177L392.727 185.154C392.414 186.14 392.111 187.13 391.825 188.138L380.296 192.434C379.127 192.871 378.265 193.883 378.022 195.107C377.778 196.334 378.186 197.589 379.101 198.448L388.123 206.85C388.01 207.864 387.91 208.886 387.824 209.905L377.346 216.397C376.284 217.053 375.637 218.213 375.637 219.476C375.637 220.739 376.284 221.887 377.346 222.531L387.824 229.023C387.91 230.045 388.01 231.064 388.123 232.078L379.101 240.48C378.186 241.332 377.778 242.597 378.022 243.821C378.265 245.051 379.127 246.06 380.296 246.495L391.825 250.791C392.111 251.788 392.414 252.779 392.727 253.774L385.543 263.751C384.812 264.768 384.657 266.088 385.137 267.236C385.617 268.393 386.66 269.219 387.905 269.417L400.054 271.394C400.529 272.315 401.016 273.222 401.517 274.115L396.41 285.309C395.889 286.447 395.997 287.767 396.694 288.817C397.391 289.86 398.577 290.469 399.82 290.419L412.136 289.987C412.778 290.789 413.425 291.574 414.084 292.354L411.267 304.36C410.981 305.577 411.341 306.842 412.229 307.725C413.11 308.616 414.392 308.971 415.618 308.685L427.624 305.868C428.405 306.532 429.195 307.176 429.992 307.811L429.562 320.151C429.514 321.399 430.123 322.586 431.164 323.278C432.2 323.972 433.527 324.077 434.672 323.557L445.866 318.449C446.769 318.95 447.676 319.437 448.587 319.912L450.568 332.061C450.769 333.297 451.595 334.343 452.75 334.83C453.903 335.31 455.232 335.154 456.235 334.426L466.211 327.242C467.197 327.555 468.188 327.86 469.195 328.147L473.491 339.675C473.928 340.844 474.94 341.711 476.164 341.95C477.391 342.198 478.647 341.787 479.506 340.871L487.907 331.849C488.922 331.966 489.943 332.063 490.962 332.154L497.454 342.632C498.108 343.69 499.271 344.341 500.51 344.341C501.748 344.341 502.92 343.692 503.589 342.632L510.081 332.154C511.102 332.063 512.121 331.966 513.136 331.849L521.537 340.871C522.389 341.787 523.654 342.198 524.879 341.95C526.108 341.709 527.12 340.844 527.552 339.675L531.848 328.147C532.846 327.86 533.836 327.555 534.832 327.242L544.808 334.426C545.823 335.154 547.145 335.31 548.293 334.83C549.448 334.355 550.274 333.307 550.475 332.061L552.456 319.912C553.372 319.437 554.279 318.943 555.177 318.449L566.371 323.557C567.509 324.077 568.829 323.972 569.879 323.278C570.92 322.581 571.526 321.399 571.481 320.151L571.051 307.811C571.848 307.174 572.638 306.532 573.417 305.868L585.422 308.685C586.642 308.971 587.928 308.616 588.811 307.725C589.699 306.84 590.06 305.568 589.773 304.36L586.957 292.354C587.616 291.574 588.265 290.789 588.9 289.987L601.239 290.419C602.483 290.469 603.674 289.86 604.366 288.817C605.063 287.777 605.17 286.452 604.648 285.309L599.54 274.115C600.039 273.21 600.528 272.303 601.001 271.394L613.149 269.417C614.386 269.219 615.426 268.393 615.894 267.236C616.372 266.083 616.221 264.754 615.489 263.751L608.304 253.774C608.615 252.789 608.918 251.798 609.206 250.791L620.735 246.495C621.907 246.055 622.771 245.046 623.009 243.821C623.258 242.595 622.847 241.339 621.93 240.48L612.908 232.078C613.018 231.064 613.118 230.042 613.207 229.023L623.685 222.531C624.747 221.877 625.394 220.715 625.394 219.476C625.394 218.237 624.749 217.065 623.687 216.397H623.613ZM553.441 303.515C549.432 302.651 546.902 298.694 547.761 294.684C548.618 290.674 552.558 288.12 556.568 288.979C560.578 289.836 563.132 293.801 562.273 297.811C561.413 301.82 557.475 304.374 553.465 303.515H553.441ZM549.885 279.408C546.233 278.626 542.629 280.95 541.866 284.612L538.142 301.988C526.662 307.191 513.797 310.103 500.431 310.103C486.683 310.103 473.699 307.071 462.003 301.63L458.28 284.254C457.497 280.602 453.912 278.263 450.26 279.05L434.913 282.344C432.073 279.408 429.424 276.282 426.989 272.988H501.696C502.541 272.988 503.104 272.835 503.104 272.067V245.573C503.104 244.805 502.541 244.652 501.696 244.652H479.857V227.921H503.462C505.617 227.921 514.99 228.536 517.974 240.523C518.912 244.198 520.981 256.18 522.389 260.023C523.793 264.319 529.502 272.912 535.588 272.912H572.822C573.245 272.912 573.696 272.864 574.171 272.778C571.593 276.287 568.753 279.604 565.721 282.707L550.016 279.342L549.885 279.408ZM446.537 303.157C442.527 304.021 438.589 301.467 437.73 297.453C436.873 293.443 439.42 289.481 443.434 288.621C447.444 287.765 451.382 290.318 452.241 294.326C453.098 298.336 450.549 302.298 446.537 303.157ZM418.134 188.352C419.795 192.1 418.106 196.491 414.363 198.162C410.616 199.826 406.248 198.133 404.577 194.391C402.906 190.648 404.606 186.252 408.348 184.581C412.096 182.92 416.463 184.61 418.134 188.352ZM409.422 208.974L425.414 201.862C428.827 200.346 430.378 196.348 428.851 192.935L425.557 185.488H438.494V243.726H412.477C410.212 235.754 408.993 227.353 408.993 218.665C408.993 215.347 409.172 212.077 409.515 208.855L409.422 208.974ZM479.594 203.318V186.133H510.384C511.976 186.133 521.625 187.973 521.625 195.179C521.625 201.169 514.226 203.318 508.14 203.318H479.499H479.594ZM591.535 218.784C591.535 221.066 591.451 223.319 591.284 225.562H581.904C580.966 225.562 580.589 226.178 580.589 227.097V231.393C580.589 241.513 574.884 243.733 569.872 244.282C565.099 244.819 559.824 242.287 559.179 239.365C556.363 223.541 551.685 220.175 544.286 214.304C553.475 208.48 563.022 199.864 563.022 188.288C563.022 175.853 554.501 168.024 548.701 164.181C540.538 158.811 531.516 157.737 529.082 157.737H432.178C445.329 143.082 463.206 132.676 483.255 128.857L494.688 140.838C497.266 143.536 501.538 143.655 504.259 141.058L517.052 128.838C543.784 133.826 566.459 150.486 579.586 173.471L570.827 193.233C569.316 196.646 570.858 200.656 574.264 202.16L591.115 209.654C591.406 212.638 591.559 215.669 591.559 218.724L591.535 218.784ZM494.631 118.777C497.59 115.937 502.292 116.056 505.109 119.018C507.925 121.978 507.83 126.68 504.863 129.52C501.903 132.361 497.201 132.241 494.385 129.277C491.569 126.317 491.664 121.615 494.631 118.775V118.777ZM581.51 188.71C583.169 184.963 587.549 183.268 591.296 184.939C595.043 186.6 596.738 191.002 595.067 194.749C593.408 198.496 589.029 200.191 585.281 198.52C581.534 196.859 579.839 192.458 581.51 188.71Z" fill="white"/>
</svg>
